<?xml version="1.0" encoding="utf-8"?>
<svg xmlns="http://www.w3.org/2000/svg" viewBox="0 0 500 500">
  <defs>
    <radialGradient gradientUnits="userSpaceOnUse" cx="250" cy="250" r="212.372" id="gradient-1" gradientTransform="matrix(1.084589, 0, 0, 1.084723, -21.147161, -21.181031)">
      <stop offset="0" style="stop-color: rgb(35, 41, 70)"/>
      <stop offset="1" style="stop-color: rgb(7.7653% 10.577% 21.326%)"/>
    </radialGradient>
  </defs>
  <ellipse style="fill: url(&quot;#gradient-1&quot;); stroke: rgb(255, 107, 53); stroke-width: 24px;" cx="250" cy="250" rx="229.704" ry="229.704"/>
  <text style="white-space: pre; fill: rgb(51, 51, 51); font-family: &quot;Arial&quot;, sans-serif; font-size: 28px;" x="615.221" y="188.776"> </text>
  <g transform="matrix(1.185202, 0, 0, 1.185202, -42.37225, -41.842873)" style="">
    <g transform="matrix(1, 0, 0, 1, 0.112354, 5.063923)">
      <g transform="matrix(1.293448, 0, 0, 1.711739, -86.586731, -169.047119)" style="">
        <rect x="162.307" y="222.358" width="188.005" height="32.1" style="stroke: rgb(0, 0, 0); paint-order: fill; fill: rgb(255, 107, 53); stroke-width: 0px;"/>
        <rect x="265.285" y="87.947" width="12.75" height="41.137" style="stroke: rgb(0, 0, 0); fill: rgb(35, 41, 70); stroke-width: 0px; transform-origin: 271.658px 108.515px 0px;" transform="matrix(0.965926, 0.258819, -0.258819, 0.965926, -58.050369, 129.118419)"/>
        <rect x="265.285" y="87.947" width="12.75" height="41.137" style="stroke: rgb(0, 0, 0); fill: rgb(35, 41, 70); stroke-width: 0px; transform-origin: 271.658px 108.515px 0px;" transform="matrix(0.965926, 0.258819, -0.258819, 0.965926, -28.696095, 129.11841)"/>
        <rect x="265.285" y="87.947" width="12.75" height="41.137" style="stroke: rgb(0, 0, 0); fill: rgb(35, 41, 70); stroke-width: 0px; transform-origin: 271.658px 108.515px 0px;" transform="matrix(0.965926, 0.258819, -0.258819, 0.965926, 0.658174, 129.118404)"/>
        <rect x="265.285" y="87.947" width="12.75" height="41.137" style="stroke: rgb(0, 0, 0); fill: rgb(35, 41, 70); stroke-width: 0px; transform-origin: 271.658px 108.515px 0px;" transform="matrix(0.965926, 0.258819, -0.258819, 0.965926, 30.012437, 129.118404)"/>
      </g>
      <path style="stroke: rgb(0, 0, 0); fill: rgb(255, 107, 53); stroke-width: 0px;" d="M 371.33 94.672 C 371.33 94.672 378.087 128.758 377.473 129.875 C 376.858 130.992 375.63 177.375 375.63 177.375 L 377.473 210.902 L 373.173 234.371 C 373.173 234.371 380.545 271.253 379.93 271.253 C 379.315 271.253 376.244 309.81 376.244 309.81 L 375.63 345.013 C 375.63 345.013 376.858 375.748 376.858 376.306 C 376.858 376.866 374.4 391.952 374.4 391.952 L 340.004 392.512 L 307.45 388.6 C 307.45 388.6 311.749 346.688 311.749 346.131 C 311.749 345.574 310.521 299.193 310.521 299.193 L 313.592 241.076 L 311.749 171.227 L 309.292 131.554 L 313.592 94.113 L 349.218 96.906 L 371.33 94.672 Z"/>
      <path style="stroke: rgb(0, 0, 0); fill: rgb(255, 107, 53); stroke-width: 0px;" d="M 177.06 90.397 C 177.06 90.397 183.817 124.483 183.203 125.6 C 182.588 126.717 181.36 173.1 181.36 173.1 L 183.203 206.627 L 178.903 230.096 C 178.903 230.096 186.275 266.978 185.66 266.978 C 185.045 266.978 181.974 305.535 181.974 305.535 L 181.36 340.738 C 181.36 340.738 182.588 371.473 182.588 372.031 C 182.588 372.591 180.13 387.677 180.13 387.677 L 145.734 388.237 L 113.18 384.325 C 113.18 384.325 117.479 342.413 117.479 341.856 C 117.479 341.299 116.251 294.918 116.251 294.918 L 119.322 236.801 L 117.479 166.952 L 115.022 127.279 L 119.322 89.838 L 154.948 92.631 L 177.06 90.397 Z"/>
    </g>
  </g>
</svg>